<svg width="1072" height="1072" viewBox="0 0 1072 1072" fill="none" xmlns="http://www.w3.org/2000/svg">
<rect width="1072" height="1072" rx="100" fill="#F8F1E2"/>
<path d="M244.436 272.134C250.201 259.847 262.55 252 276.122 252H656.342C681.619 252 698.561 277.974 688.374 301.107L658.947 367.924C651.671 384.447 663.772 403 681.827 403H840.616C866.204 403 883.143 429.562 872.35 452.763L841.414 519.263C835.672 531.606 823.294 539.5 809.68 539.5H612.489C592.478 539.5 574.394 551.431 566.521 569.829L552.87 601.73C542.988 624.824 559.929 650.5 585.047 650.5H770.416C783.932 650.5 796.239 658.282 802.035 670.492L849.263 769.992C860.286 793.215 843.35 820 817.644 820H632.714C618.645 820 605.943 811.575 600.47 798.614L552.03 683.886C546.557 670.925 533.855 662.5 519.786 662.5H318.453C292.973 662.5 276.032 636.143 286.614 612.965L317.657 544.965C323.349 532.498 335.792 524.5 349.496 524.5H541.163C558.47 524.5 574.547 515.55 583.664 500.838L611.346 456.169C621.667 439.515 609.689 418 590.096 418H231.082C205.444 418 188.506 391.344 199.396 368.134L244.436 272.134Z" fill="url(#paint0_linear_19_95)"/>
<path d="M244.436 272.134C250.201 259.847 262.55 252 276.122 252H656.342C681.619 252 698.561 277.974 688.374 301.107L658.947 367.924C651.671 384.447 663.772 403 681.827 403H840.616C866.204 403 883.143 429.562 872.35 452.763L841.414 519.263C835.672 531.606 823.294 539.5 809.68 539.5H612.489C592.478 539.5 574.394 551.431 566.521 569.829L552.87 601.73C542.988 624.824 559.929 650.5 585.047 650.5H770.416C783.932 650.5 796.239 658.282 802.035 670.492L849.263 769.992C860.286 793.215 843.35 820 817.644 820H632.714C618.645 820 605.943 811.575 600.47 798.614L552.03 683.886C546.557 670.925 533.855 662.5 519.786 662.5H318.453C292.973 662.5 276.032 636.143 286.614 612.965L317.657 544.965C323.349 532.498 335.792 524.5 349.496 524.5H541.163C558.47 524.5 574.547 515.55 583.664 500.838L611.346 456.169C621.667 439.515 609.689 418 590.096 418H231.082C205.444 418 188.506 391.344 199.396 368.134L244.436 272.134Z" fill="url(#paint1_linear_19_95)"/>
<defs>
<linearGradient id="paint0_linear_19_95" x1="747.279" y1="799.699" x2="269" y2="209" gradientUnits="userSpaceOnUse">
<stop stop-color="#0B0A0A"/>
<stop offset="1" stop-color="#171616"/>
</linearGradient>
<linearGradient id="paint1_linear_19_95" x1="747.279" y1="799.699" x2="269" y2="209" gradientUnits="userSpaceOnUse">
<stop stop-color="#0B0A0A"/>
<stop offset="1" stop-color="#171616"/>
</linearGradient>
</defs>
</svg>

